<?xml version="1.0" encoding="UTF-8"?>
<!DOCTYPE svg PUBLIC "-//W3C//DTD SVG 1.1//EN" "http://www.w3.org/Graphics/SVG/1.1/DTD/svg11.dtd">
<svg xmlns="http://www.w3.org/2000/svg" version="1.1" width="3636px" height="662px" style="shape-rendering:geometricPrecision; text-rendering:geometricPrecision; image-rendering:optimizeQuality; fill-rule:evenodd; clip-rule:evenodd" xmlns:xlink="http://www.w3.org/1999/xlink">
<g><path style="opacity:0.988" fill="#f8dbbc" d="M -0.5,-0.5 C 101.5,-0.5 203.5,-0.5 305.5,-0.5C 305.5,101.5 305.5,203.5 305.5,305.5C 203.5,305.5 101.5,305.5 -0.5,305.5C -0.5,203.5 -0.5,101.5 -0.5,-0.5 Z M 70.5,70.5 C 125.167,70.5 179.833,70.5 234.5,70.5C 234.5,125.167 234.5,179.833 234.5,234.5C 179.833,234.5 125.167,234.5 70.5,234.5C 70.5,179.833 70.5,125.167 70.5,70.5 Z"/></g>
<g><path style="opacity:0.988" fill="#fea5aa" d="M 358.5,-0.5 C 460.5,-0.5 562.5,-0.5 664.5,-0.5C 664.5,101.5 664.5,203.5 664.5,305.5C 562.5,305.5 460.5,305.5 358.5,305.5C 358.5,203.5 358.5,101.5 358.5,-0.5 Z M 429.5,70.5 C 484.167,70.5 538.833,70.5 593.5,70.5C 593.5,125.167 593.5,179.833 593.5,234.5C 538.833,234.5 484.167,234.5 429.5,234.5C 429.5,179.833 429.5,125.167 429.5,70.5 Z"/></g>
<g><path style="opacity:0.99" fill="#000000" d="M 1040.5,82.5 C 1115.69,80.5235 1177.19,108.19 1225,165.5C 1268.74,225.89 1280.74,292.223 1261,364.5C 1252.94,390.956 1240.44,414.956 1223.5,436.5C 1237.35,451.183 1251.02,466.017 1264.5,481C 1241.33,501.5 1218.17,522 1195,542.5C 1179.99,526.655 1164.82,510.988 1149.5,495.5C 1098.2,519.451 1045.2,523.951 990.5,509C 922.55,488.051 875.383,444.551 849,378.5C 826.128,311.897 831.794,247.897 866,186.5C 906.873,123.296 965.039,88.6289 1040.5,82.5 Z M 1043.5,176.5 C 1092.51,174.585 1130.34,193.918 1157,234.5C 1175.52,270.54 1178.52,307.873 1166,346.5C 1163.55,353.404 1160.55,360.07 1157,366.5C 1134.96,342.799 1112.63,319.465 1090,296.5C 1067.16,316.26 1044.5,336.26 1022,356.5C 1021.33,357.167 1021.33,357.833 1022,358.5C 1041.35,379.016 1060.52,399.683 1079.5,420.5C 1029.82,430.11 988.657,415.777 956,377.5C 929.241,336.663 924.574,293.33 942,247.5C 962.498,204.844 996.331,181.178 1043.5,176.5 Z"/></g>
<g><path style="opacity:0.99" fill="#000000" d="M 2291.5,82.5 C 2380.58,81.1039 2448.08,118.104 2494,193.5C 2522.57,248.876 2528.24,306.543 2511,366.5C 2486.58,438.591 2438.08,486.091 2365.5,509C 2289.24,528.818 2220.58,514.151 2159.5,465C 2100.61,409.675 2077.11,341.842 2089,261.5C 2103.49,188.978 2143.65,136.145 2209.5,103C 2235.7,91.132 2263.04,84.2987 2291.5,82.5 Z M 2236.5,186.5 C 2262.68,184.778 2285.01,193.111 2303.5,211.5C 2331.56,184.712 2363.23,179.546 2398.5,196C 2434.6,219.617 2446.1,252.117 2433,293.5C 2430.51,299.157 2427.51,304.49 2424,309.5C 2384.03,350.472 2343.69,391.139 2303,431.5C 2264.67,393.167 2226.33,354.833 2188,316.5C 2162.48,284.136 2161.14,250.803 2184,216.5C 2197.8,199.853 2215.3,189.853 2236.5,186.5 Z"/></g>
<g><path style="opacity:0.988" fill="#000000" d="M 1325.5,91.5 C 1387.17,91.3333 1448.83,91.5 1510.5,92C 1565.92,100.435 1604.75,130.268 1627,181.5C 1647.98,243.096 1634.48,295.596 1586.5,339C 1577.97,345.094 1569.3,350.927 1560.5,356.5C 1590.23,406.908 1619.57,457.575 1648.5,508.5C 1613.83,509.833 1579.17,509.833 1544.5,508.5C 1518.63,463.252 1492.63,418.085 1466.5,373C 1451.84,372.5 1437.17,372.333 1422.5,372.5C 1422.5,418.167 1422.5,463.833 1422.5,509.5C 1390.17,509.5 1357.83,509.5 1325.5,509.5C 1325.5,370.167 1325.5,230.833 1325.5,91.5 Z M 1422.5,181.5 C 1448.17,181.333 1473.84,181.5 1499.5,182C 1521.07,187.24 1534.24,200.74 1539,222.5C 1543.24,245.102 1536.74,263.935 1519.5,279C 1513.76,283.026 1507.43,285.693 1500.5,287C 1474.5,287.5 1448.5,287.667 1422.5,287.5C 1422.5,252.167 1422.5,216.833 1422.5,181.5 Z"/></g>
<g><path style="opacity:0.995" fill="#000000" d="M 1841.5,91.5 C 1873.5,91.5 1905.5,91.5 1937.5,91.5C 1937.5,199.833 1937.5,308.167 1937.5,416.5C 1987.17,416.5 2036.83,416.5 2086.5,416.5C 2086.5,447.5 2086.5,478.5 2086.5,509.5C 2004.83,509.5 1923.17,509.5 1841.5,509.5C 1841.5,370.167 1841.5,230.833 1841.5,91.5 Z"/></g>
<g><path style="opacity:0.99" fill="#000000" d="M 2519.5,92.5 C 2554.66,91.5016 2590,91.1683 2625.5,91.5C 2655.84,193.193 2686.34,294.86 2717,396.5C 2747.4,295.131 2777.9,193.798 2808.5,92.5C 2843.83,91.3334 2879.16,91.1668 2914.5,92C 2868.87,231.065 2823.53,370.231 2778.5,509.5C 2737.49,509.833 2696.49,509.5 2655.5,508.5C 2610.33,369.663 2565,230.996 2519.5,92.5 Z"/></g>
<g><path style="opacity:0.99" fill="#000000" d="M 2948.5,91.5 C 3035.5,91.5 3122.5,91.5 3209.5,91.5C 3209.5,122.167 3209.5,152.833 3209.5,183.5C 3154.83,183.5 3100.17,183.5 3045.5,183.5C 3045.5,206.167 3045.5,228.833 3045.5,251.5C 3095.17,251.5 3144.83,251.5 3194.5,251.5C 3194.5,282.167 3194.5,312.833 3194.5,343.5C 3144.83,343.5 3095.17,343.5 3045.5,343.5C 3045.5,367.833 3045.5,392.167 3045.5,416.5C 3101.17,416.5 3156.83,416.5 3212.5,416.5C 3212.5,447.5 3212.5,478.5 3212.5,509.5C 3124.5,509.5 3036.5,509.5 2948.5,509.5C 2948.5,370.167 2948.5,230.833 2948.5,91.5 Z"/></g>
<g><path style="opacity:0.989" fill="#000000" d="M 3635.5,286.5 C 3635.5,295.5 3635.5,304.5 3635.5,313.5C 3630.13,389.11 3595.13,446.276 3530.5,485C 3507.28,497.294 3482.62,504.961 3456.5,508C 3392.52,509.452 3328.52,509.952 3264.5,509.5C 3264.5,370.167 3264.5,230.833 3264.5,91.5C 3327.5,91.3333 3390.5,91.5 3453.5,92C 3530.8,101.863 3585.63,142.03 3618,212.5C 3627.74,236.376 3633.57,261.042 3635.5,286.5 Z M 3361.5,183.5 C 3390.86,183.096 3420.19,183.596 3449.5,185C 3497.56,192.723 3527.39,220.223 3539,267.5C 3546.64,302.117 3542.3,335.117 3526,366.5C 3508.59,393.886 3483.75,410.053 3451.5,415C 3421.53,416.435 3391.53,416.935 3361.5,416.5C 3361.5,338.833 3361.5,261.167 3361.5,183.5 Z"/></g>
<g><path style="opacity:0.986" fill="#f8dbbc" d="M 116.5,115.5 C 139.833,115.5 163.167,115.5 186.5,115.5C 186.5,139.167 186.5,162.833 186.5,186.5C 163.167,186.5 139.833,186.5 116.5,186.5C 116.5,162.833 116.5,139.167 116.5,115.5 Z"/></g>
<g><path style="opacity:0.972" fill="#fea5aa" d="M 474.5,115.5 C 498.167,115.5 521.833,115.5 545.5,115.5C 545.5,139.167 545.5,162.833 545.5,186.5C 521.833,186.5 498.167,186.5 474.5,186.5C 474.5,162.833 474.5,139.167 474.5,115.5 Z"/></g>
<g><path style="opacity:0.988" fill="#d9627c" d="M -0.5,355.5 C 101.5,355.5 203.5,355.5 305.5,355.5C 305.5,457.5 305.5,559.5 305.5,661.5C 203.5,661.5 101.5,661.5 -0.5,661.5C -0.5,559.5 -0.5,457.5 -0.5,355.5 Z M 70.5,426.5 C 125.167,426.5 179.833,426.5 234.5,426.5C 234.5,481.167 234.5,535.833 234.5,590.5C 179.833,590.5 125.167,590.5 70.5,590.5C 70.5,535.833 70.5,481.167 70.5,426.5 Z"/></g>
<g><path style="opacity:0.994" fill="#a4385f" d="M 441.5,369.5 C 469.549,368.345 493.382,377.678 513,397.5C 539.226,371.902 570.059,364.068 605.5,374C 649.755,391.951 669.589,424.785 665,472.5C 662.733,485.974 657.733,498.307 650,509.5C 604.694,555.806 559.028,601.806 513,647.5C 468.333,602.833 423.667,558.167 379,513.5C 358.514,484.601 354.848,453.601 368,420.5C 383.538,390.489 408.038,373.489 441.5,369.5 Z"/></g>
<g><path style="opacity:1" fill="#d9627c" d="M 116.5,472.5 C 139.833,472.5 163.167,472.5 186.5,472.5C 186.5,495.833 186.5,519.167 186.5,542.5C 163.167,542.5 139.833,542.5 116.5,542.5C 116.5,519.167 116.5,495.833 116.5,472.5 Z"/></g>
</svg>
